# xmcd
#
# Track frame offsets:
#	150
#	453
#	14231
#	24325
#	38168
#	51717
#	62137
#	71894
#	90082
#	100182
#	113291
#	124403
#
# Disc length: 1883 seconds
#
# Revision: 1
# Processed by: cddbd v1.5.2PL0 Copyright (c) Steve Scherf et al.
# Submitted via: EasyCDDAExtractor 5.0.6
#
DISCID=9a07590c
DTITLE=Tim O Connor "Hitch Hiking Poet" - The Hitch Hiking Poet
DYEAR=1900
DGENRE=Blues
TTITLE0=empty
TTITLE1=Nomad
TTITLE2=Don't Touch
TTITLE3=God Charge Card
TTITLE4=Run Over By Love
TTITLE5=Jesus Had The Blues
TTITLE6=Cheap Haircut
TTITLE7=Almost Met A Girl Today
TTITLE8=Highway White Line Groove
TTITLE9=Who Killed John Kennedy
TTITLE10=The Stripper
TTITLE11=Keep The Faith
EXTD=
EXTT0=
EXTT1=
EXTT2=
EXTT3=
EXTT4=
EXTT5=
EXTT6=
EXTT7=
EXTT8=
EXTT9=
EXTT10=
EXTT11=
PLAYORDER=
